<svg width="10" height="10" viewBox="0 0 10 10" fill="none" xmlns="http://www.w3.org/2000/svg">
<path d="M1.50001 9.66668C1.17918 9.66668 0.904524 9.55244 0.676052 9.32397C0.44758 9.0955 0.333344 8.82084 0.333344 8.50001V1.50001C0.333344 1.17918 0.44758 0.904524 0.676052 0.676052C0.904524 0.44758 1.17918 0.333344 1.50001 0.333344H8.50001C8.82084 0.333344 9.0955 0.44758 9.32397 0.676052C9.55244 0.904524 9.66668 1.17918 9.66668 1.50001V8.50001C9.66668 8.82084 9.55244 9.0955 9.32397 9.32397C9.0955 9.55244 8.82084 9.66668 8.50001 9.66668H1.50001ZM1.50001 8.50001H8.50001V1.50001H1.50001V8.50001Z" fill="white"/>
</svg>
