<svg width="10" height="10" viewBox="0 0 10 10" fill="none" xmlns="http://www.w3.org/2000/svg">
<path d="M0.909919 0.327646C0.794084 0.327676 0.68089 0.36226 0.584809 0.426977C0.488727 0.491693 0.414124 0.583601 0.370536 0.690951C0.326948 0.798301 0.316357 0.916214 0.340116 1.02962C0.363876 1.14302 0.420906 1.24676 0.503916 1.32757L4.16818 4.99281L0.503916 8.65805C0.448033 8.71172 0.403417 8.776 0.372681 8.84713C0.341946 8.91827 0.325708 8.99482 0.32492 9.0723C0.324132 9.14979 0.338809 9.22666 0.368091 9.2984C0.397374 9.37014 0.440673 9.43532 0.495453 9.49011C0.550233 9.54491 0.615393 9.58822 0.687116 9.61751C0.75884 9.6468 0.835685 9.66148 0.913152 9.66069C0.990618 9.6599 1.06715 9.64366 1.13826 9.61292C1.20937 9.58218 1.27364 9.53755 1.32729 9.48165L4.99156 5.81641L8.65582 9.48165C8.70947 9.53755 8.77374 9.58218 8.84485 9.61292C8.91596 9.64366 8.99249 9.65991 9.06996 9.6607C9.14743 9.66148 9.22427 9.6468 9.296 9.61751C9.36772 9.58822 9.43288 9.54491 9.48766 9.49012C9.54244 9.43532 9.58574 9.37014 9.61502 9.2984C9.64431 9.22666 9.65898 9.14979 9.65819 9.0723C9.65741 8.99482 9.64117 8.91827 9.61043 8.84713C9.5797 8.776 9.53508 8.71172 9.4792 8.65805L5.81493 4.99281L9.4792 1.32757C9.56334 1.24576 9.62081 1.14043 9.64407 1.02539C9.66734 0.910345 9.65532 0.790955 9.60959 0.682863C9.56386 0.574772 9.48654 0.483021 9.38778 0.419635C9.28902 0.35625 9.17342 0.324186 9.05613 0.327646C8.90486 0.332155 8.76128 0.395395 8.65582 0.503969L4.99156 4.16921L1.32729 0.503969C1.27303 0.448175 1.20814 0.403825 1.13645 0.373541C1.06477 0.343256 0.987737 0.32765 0.909919 0.327646Z" fill="white"/>
</svg>
